<svg width="604" height="600" viewBox="0 0 604 600" fill="none" xmlns="http://www.w3.org/2000/svg">
    <circle cx="300" cy="300" r="164.5" fill="url(#paint0_linear_3_1477)" stroke="url(#paint1_linear_3_1477)" stroke-width="3"/>
    <path fill-rule="evenodd" clip-rule="evenodd" d="M513.608 89.354C562.626 139.061 592.774 204.308 598.858 273.853L527.132 280.128C522.508 227.274 499.596 177.687 462.342 139.909C425.088 102.131 375.826 78.5288 323.041 73.1671L330.317 1.53574C399.771 8.59058 464.59 39.6466 513.608 89.354Z" fill="#10B981" fill-opacity="0.75"/>
    <path fill-rule="evenodd" clip-rule="evenodd" d="M22.8362 185.195C7.75974 221.593 0 260.603 0 300H72C72 270.059 77.8974 240.41 89.3555 212.748C100.814 185.086 117.608 159.951 138.78 138.78C159.951 117.608 185.086 100.814 212.748 89.3555C240.41 77.8974 270.059 72 300 72L300 0C260.603 0 221.593 7.75974 185.195 22.8362C148.797 37.9125 115.726 60.0104 87.868 87.868C60.0104 115.726 37.9126 148.797 22.8362 185.195Z" fill="#10B981"/>
    <path fill-rule="evenodd" clip-rule="evenodd" d="M22.8362 414.805C7.75974 378.407 0 339.397 0 300H72C72 329.941 77.8974 359.59 89.3555 387.252C100.814 414.914 117.608 440.049 138.78 461.22C159.951 482.392 185.086 499.186 212.748 510.645C240.41 522.103 270.059 528 300 528L300 600C260.603 600 221.593 592.24 185.195 577.164C148.797 562.087 115.726 539.99 87.868 512.132C60.0104 484.274 37.9126 451.203 22.8362 414.805Z" fill="#10B981"/>
    <path fill-rule="evenodd" clip-rule="evenodd" d="M485.791 434.373C513.424 397.968 529.478 354.099 531.87 308.457L603.771 312.225C600.624 372.28 579.5 430.003 543.141 477.904C506.782 525.805 456.866 561.674 399.87 580.855L376.905 512.616C420.222 498.038 458.158 470.778 485.791 434.373Z" fill="#10B981" fill-opacity="0.5"/>
    <path d="M225.441 355.725C218.18 343.658 222.077 327.99 234.144 320.729L365.241 241.846C377.308 234.585 392.977 238.482 400.238 250.549C407.499 262.616 403.603 278.285 391.535 285.545L260.438 364.428C248.371 371.689 232.702 367.793 225.441 355.725Z" fill="url(#paint2_linear_3_1477)"/>
    <path d="M199.147 312.026C191.886 299.959 195.782 284.291 207.85 277.03C219.917 269.769 235.585 273.665 242.846 285.732L269.14 329.431C276.401 341.499 272.505 357.167 260.438 364.428C248.371 371.689 232.702 367.793 225.441 355.725L199.147 312.026Z" fill="url(#paint3_linear_3_1477)"/>
    <defs>
        <linearGradient id="paint0_linear_3_1477" x1="466" y1="134" x2="134" y2="466" gradientUnits="userSpaceOnUse">
            <stop stop-color="#64748B"/>
            <stop offset="1" stop-color="#1E293B"/>
        </linearGradient>
        <linearGradient id="paint1_linear_3_1477" x1="300" y1="134" x2="300" y2="466" gradientUnits="userSpaceOnUse">
            <stop stop-color="#34D399"/>
            <stop offset="1" stop-color="#10B981"/>
        </linearGradient>
        <linearGradient id="paint2_linear_3_1477" x1="273.398" y1="237.588" x2="325.987" y2="324.987" gradientUnits="userSpaceOnUse">
            <stop stop-color="#34D399"/>
            <stop offset="1" stop-color="#10B981"/>
        </linearGradient>
        <linearGradient id="paint3_linear_3_1477" x1="273.398" y1="237.588" x2="325.987" y2="324.987" gradientUnits="userSpaceOnUse">
            <stop stop-color="#34D399"/>
            <stop offset="1" stop-color="#10B981"/>
        </linearGradient>
    </defs>
</svg>
